<svg width="24" height="25" viewBox="0 0 24 25" fill="none" xmlns="http://www.w3.org/2000/svg">
<g id="icon">
<path id="Vector" d="M9.74997 3.60408V9.31802C9.74997 9.91476 9.51292 10.4871 9.09097 10.909L4.99998 15M9.74997 3.60408C9.49883 3.62743 9.24881 3.65465 8.99997 3.68568M9.74997 3.60408C10.4907 3.53521 11.2412 3.5 12 3.5C12.7587 3.5 13.5092 3.53521 14.25 3.60408M14.25 3.60408V9.31802C14.25 9.91476 14.487 10.4871 14.909 10.909L19.8 15.8M14.25 3.60408C14.5011 3.62743 14.7511 3.65465 15 3.68568M19.8 15.8L18.2299 16.1925C16.1456 16.7136 13.9216 16.4608 12 15.5C10.0784 14.5392 7.85432 14.2864 5.77007 14.8075L4.99998 15M19.8 15.8L21.2022 17.2022C22.4341 18.4341 21.8527 20.5202 20.1354 20.8134C17.4911 21.2649 14.773 21.5 12 21.5C9.22696 21.5 6.50888 21.2649 3.86456 20.8134C2.14725 20.5202 1.56588 18.4341 2.79777 17.2022L4.99998 15" stroke="black" stroke-width="2" stroke-linecap="round" stroke-linejoin="round"/>
</g>
</svg>
